<svg width="318" height="318" viewBox="0 0 318 318" fill="none" xmlns="http://www.w3.org/2000/svg">
<g filter="url(#filter0_d_77_3297)">
<rect x="31" y="27" width="256" height="256" rx="36" fill="white"/>
</g>
<path d="M114.192 211.864C104.208 211.864 95.184 209.656 87.12 205.24C79.152 200.824 72.864 194.728 68.256 186.952C63.744 179.08 61.488 170.296 61.488 160.6C61.488 150.904 63.744 142.168 68.256 134.392C72.864 126.52 79.2 120.376 87.264 115.96C95.328 111.544 104.352 109.336 114.336 109.336C121.824 109.336 128.736 110.584 135.072 113.08C141.408 115.576 146.784 119.224 151.2 124.024L144.432 130.792C136.56 122.824 126.624 118.84 114.624 118.84C106.656 118.84 99.408 120.664 92.88 124.312C86.352 127.96 81.216 132.952 77.472 139.288C73.824 145.624 72 152.728 72 160.6C72 168.472 73.824 175.576 77.472 181.912C81.216 188.248 86.352 193.24 92.88 196.888C99.408 200.536 106.656 202.36 114.624 202.36C126.72 202.36 136.656 198.328 144.432 190.264L151.2 197.032C146.784 201.832 141.36 205.528 134.928 208.12C128.592 210.616 121.68 211.864 114.192 211.864ZM210.348 134.68C219.852 134.68 227.388 137.464 232.956 143.032C238.62 148.504 241.452 156.52 241.452 167.08V211H231.228V168.088C231.228 160.216 229.26 154.216 225.324 150.088C221.388 145.96 215.772 143.896 208.476 143.896C200.316 143.896 193.836 146.344 189.036 151.24C184.332 156.04 181.98 162.712 181.98 171.256V211H171.756V104.152H181.98V148.504C184.764 144.088 188.604 140.68 193.5 138.28C198.396 135.88 204.012 134.68 210.348 134.68Z" fill="black"/>
<defs>
<filter id="filter0_d_77_3297" x="0" y="0" width="318" height="318" filterUnits="userSpaceOnUse" color-interpolation-filters="sRGB">
<feFlood flood-opacity="0" result="BackgroundImageFix"/>
<feColorMatrix in="SourceAlpha" type="matrix" values="0 0 0 0 0 0 0 0 0 0 0 0 0 0 0 0 0 0 127 0" result="hardAlpha"/>
<feMorphology radius="6" operator="dilate" in="SourceAlpha" result="effect1_dropShadow_77_3297"/>
<feOffset dy="4"/>
<feGaussianBlur stdDeviation="12.5"/>
<feComposite in2="hardAlpha" operator="out"/>
<feColorMatrix type="matrix" values="0 0 0 0 0 0 0 0 0 0 0 0 0 0 0 0 0 0 0.08 0"/>
<feBlend mode="normal" in2="BackgroundImageFix" result="effect1_dropShadow_77_3297"/>
<feBlend mode="normal" in="SourceGraphic" in2="effect1_dropShadow_77_3297" result="shape"/>
</filter>
</defs>
</svg>
